<?xml version="1.0" encoding="UTF-8" standalone="no"?>
<svg width="48px" height="48px" viewBox="0 0 48 48" version="1.1" xmlns="http://www.w3.org/2000/svg" xmlns:xlink="http://www.w3.org/1999/xlink" xmlns:sketch="http://www.bohemiancoding.com/sketch/ns">
    <!-- Generator: Sketch 3.2.2 (9983) - http://www.bohemiancoding.com/sketch -->
    <title>BG + Add_icon 3</title>
    <desc>Created with Sketch.</desc>
    <defs></defs>
    <g id="Page-1" stroke="none" stroke-width="1" fill="none" fill-rule="evenodd" sketch:type="MSPage">
        <g id="Global-View-of-Projects" sketch:type="MSArtboardGroup" transform="translate(-1332.000000, -126.000000)">
            <g id="Sub_header" sketch:type="MSLayerGroup" transform="translate(-2.000000, 70.000000)">
                <g id="Add-Project" transform="translate(1334.000000, 56.000000)" sketch:type="MSShapeGroup">
                    <g id="BG-+-Add_icon-3">
                        <rect id="BG" fill="#28CEE0" x="0" y="0" width="48" height="48" rx="29"></rect>
                        <path d="M25.3333333,22.6666667 L25.3333333,17.3366311 C25.3333333,16.588424 24.7363797,16 24,16 C23.2584864,16 22.6666667,16.5984301 22.6666667,17.3366311 L22.6666667,22.6666667 L17.3366311,22.6666667 C16.588424,22.6666667 16,23.2636203 16,24 C16,24.7415136 16.5984301,25.3333333 17.3366311,25.3333333 L22.6666667,25.3333333 L22.6666667,30.6633689 C22.6666667,31.411576 23.2636203,32 24,32 C24.7415136,32 25.3333333,31.4015699 25.3333333,30.6633689 L25.3333333,25.3333333 L30.6633689,25.3333333 C31.411576,25.3333333 32,24.7363797 32,24 C32,23.2584864 31.4015699,22.6666667 30.6633689,22.6666667 L25.3333333,22.6666667 Z" id="Add_icon-3" fill="#FFFFFF"></path>
                    </g>
                </g>
            </g>
        </g>
    </g>
</svg>