<?xml version="1.0" encoding="UTF-8" standalone="no"?>
<svg width="52px" height="52px" viewBox="0 0 52 52" version="1.1" xmlns="http://www.w3.org/2000/svg" xmlns:xlink="http://www.w3.org/1999/xlink" xmlns:sketch="http://www.bohemiancoding.com/sketch/ns">
    <!-- Generator: Sketch 3.2.2 (9983) - http://www.bohemiancoding.com/sketch -->
    <title>Oval 74 + Edit_icon</title>
    <desc>Created with Sketch.</desc>
    <defs>
        <filter x="-50%" y="-50%" width="200%" height="200%" filterUnits="objectBoundingBox" id="filter-1">
            <feOffset dx="0" dy="1" in="SourceAlpha" result="shadowOffsetOuter1"></feOffset>
            <feGaussianBlur stdDeviation="1" in="shadowOffsetOuter1" result="shadowBlurOuter1"></feGaussianBlur>
            <feColorMatrix values="0 0 0 0 0   0 0 0 0 0   0 0 0 0 0  0 0 0 0.0851619112 0" in="shadowBlurOuter1" type="matrix" result="shadowMatrixOuter1"></feColorMatrix>
            <feMerge>
                <feMergeNode in="shadowMatrixOuter1"></feMergeNode>
                <feMergeNode in="SourceGraphic"></feMergeNode>
            </feMerge>
        </filter>
    </defs>
    <g id="Page-1" stroke="none" stroke-width="1" fill="none" fill-rule="evenodd" sketch:type="MSPage">
        <g id="Global-View-of-Projects" sketch:type="MSArtboardGroup" transform="translate(-830.000000, -270.000000)">
            <g id="Project-:settings" sketch:type="MSLayerGroup" transform="translate(740.000000, 210.000000)">
                <g id="Edit" transform="translate(92.000000, 61.000000)" sketch:type="MSShapeGroup">
                    <g id="Oval-74-+-Edit_icon">
                        <circle id="Oval-74" fill="#41CF75" filter="url(#filter-1)" cx="24" cy="24" r="24"></circle>
                        <path d="M17.9713077,24.4612126 L24.5354881,17.8970322 L28.6838199,22.045364 L22.1196395,28.6095444 L17.9713077,24.4612126 Z M19.2590504,24.4961832 L24.5103947,19.2448389 L25.2017833,19.9362275 L19.950439,25.1875718 L19.2590504,24.4961832 Z M21.4533443,26.5703491 L26.7046886,21.3190048 L27.3960772,22.0103934 L22.1447329,27.2617377 L21.4533443,26.5703491 Z M25.1919061,17.5101345 L26.4502143,16.2518263 C26.8428589,15.8591817 27.4800285,15.8597486 27.8647102,16.2444303 L30.1518043,18.5315244 L30.5998006,18.9795207 C30.9917523,19.3714725 30.9930973,20.0056069 30.5985461,20.4001581 L29.3402379,21.6584663 L25.1919061,17.5101345 Z M17.532425,25.020638 L21.2456862,28.9317227 L17.532425,28.9317227 L17.532425,25.020638 Z M17,31.0222288 L29.4128011,31.0222288 L29.4128011,32 L17,32 L17,31.0222288 Z" id="Edit_icon" fill="#FFFFFF"></path>
                    </g>
                </g>
            </g>
        </g>
    </g>
</svg>