<?xml version="1.0" encoding="UTF-8" standalone="no"?>
<svg width="16px" height="17px" viewBox="0 0 16 17" version="1.1" xmlns="http://www.w3.org/2000/svg" xmlns:xlink="http://www.w3.org/1999/xlink" xmlns:sketch="http://www.bohemiancoding.com/sketch/ns">
    <!-- Generator: Sketch 3.2.2 (9983) - http://www.bohemiancoding.com/sketch -->
    <title>Oval 62</title>
    <desc>Created with Sketch.</desc>
    <defs></defs>
    <g id="Page-1" stroke="none" stroke-width="1" fill="none" fill-rule="evenodd" sketch:type="MSPage">
        <g id="Global-View-of-Projects" sketch:type="MSArtboardGroup" transform="translate(-1217.000000, -27.000000)" fill="#FFFFFF">
            <g id="Header" sketch:type="MSLayerGroup">
                <path d="M1225,43.8421053 C1229.41828,43.8421053 1233,40.0718716 1233,35.4210526 C1233,30.7702337 1229.41828,27 1225,27 C1220.58172,27 1217,30.7702337 1217,35.4210526 C1217,40.0718716 1220.58172,43.8421053 1225,43.8421053 Z M1223.75195,37.443565 L1223.75195,36.949116 C1223.75195,36.5214822 1223.8387,36.1495356 1224.01221,35.8332648 C1224.18571,35.516994 1224.50309,35.180683 1224.96436,34.8243215 C1225.40869,34.4902327 1225.70174,34.2185112 1225.84351,34.0091488 C1225.98527,33.7997865 1226.05615,33.5659278 1226.05615,33.3075658 C1226.05615,33.0180221 1225.95459,32.7975268 1225.75146,32.6460732 C1225.54834,32.4946196 1225.26481,32.4188939 1224.90088,32.4188939 C1224.26611,32.4188939 1223.54248,32.637162 1222.72998,33.0737048 L1222.03809,31.610403 C1222.98178,31.0535882 1223.98258,30.775185 1225.04053,30.775185 C1225.91228,30.775185 1226.60522,30.9956804 1227.11938,31.4366776 C1227.63355,31.8776749 1227.89062,32.4656624 1227.89062,33.2006579 C1227.89062,33.6906549 1227.78483,34.1138277 1227.57324,34.4701891 C1227.36165,34.8265506 1226.95964,35.2274512 1226.36719,35.672903 C1225.96094,35.9891737 1225.70386,36.2297141 1225.59595,36.3945312 C1225.48804,36.5593484 1225.43408,36.7753893 1225.43408,37.0426604 L1225.43408,37.443565 L1223.75195,37.443565 Z M1223.54883,39.7287212 C1223.54883,39.3545417 1223.64404,39.0716841 1223.83447,38.8801398 C1224.0249,38.6885955 1224.30208,38.5928248 1224.66602,38.5928248 C1225.01725,38.5928248 1225.28914,38.6908228 1225.48169,38.8868215 C1225.67424,39.0828203 1225.77051,39.3634508 1225.77051,39.7287212 C1225.77051,40.0806281 1225.67318,40.3579177 1225.47852,40.5605983 C1225.28385,40.7632788 1225.01302,40.8646176 1224.66602,40.8646176 C1224.31055,40.8646176 1224.03548,40.7655061 1223.84082,40.56728 C1223.64616,40.369054 1223.54883,40.0895372 1223.54883,39.7287212 L1223.54883,39.7287212 Z" id="Oval-62" sketch:type="MSShapeGroup"></path>
            </g>
        </g>
    </g>
</svg>