<?xml version="1.0" encoding="UTF-8" standalone="no"?>
<svg width="36px" height="36px" viewBox="0 0 36 36" version="1.1" xmlns="http://www.w3.org/2000/svg" xmlns:xlink="http://www.w3.org/1999/xlink" xmlns:sketch="http://www.bohemiancoding.com/sketch/ns">
    <!-- Generator: Sketch 3.2.2 (9983) - http://www.bohemiancoding.com/sketch -->
    <title>Oval 72 + Icon_menu</title>
    <desc>Created with Sketch.</desc>
    <defs>
        <filter x="-50%" y="-50%" width="200%" height="200%" filterUnits="objectBoundingBox" id="filter-1">
            <feOffset dx="0" dy="1" in="SourceAlpha" result="shadowOffsetOuter1"></feOffset>
            <feGaussianBlur stdDeviation="1" in="shadowOffsetOuter1" result="shadowBlurOuter1"></feGaussianBlur>
            <feColorMatrix values="0 0 0 0 0   0 0 0 0 0   0 0 0 0 0  0 0 0 0.0851619112 0" in="shadowBlurOuter1" type="matrix" result="shadowMatrixOuter1"></feColorMatrix>
            <feMerge>
                <feMergeNode in="shadowMatrixOuter1"></feMergeNode>
                <feMergeNode in="SourceGraphic"></feMergeNode>
            </feMerge>
        </filter>
    </defs>
    <g id="Page-1" stroke="none" stroke-width="1" fill="none" fill-rule="evenodd" sketch:type="MSPage">
        <g id="Global-View-of-Projects" sketch:type="MSArtboardGroup" transform="translate(-311.000000, -224.000000)">
            <g id="New_project" sketch:type="MSLayerGroup" transform="translate(60.000000, 210.000000)">
                <g id="Settings-2" transform="translate(253.000000, 15.000000)" sketch:type="MSShapeGroup">
                    <g id="Oval-72-+-Icon_menu">
                        <circle id="Oval-72" fill="#FFFFFF" filter="url(#filter-1)" cx="16" cy="16" r="16"></circle>
                        <path d="M11.0454545,18 C12.1751279,18 13.0909091,17.1045695 13.0909091,16 C13.0909091,14.8954305 12.1751279,14 11.0454545,14 C9.91578119,14 9,14.8954305 9,16 C9,17.1045695 9.91578119,18 11.0454545,18 Z M16.5,18 C17.6296734,18 18.5454545,17.1045695 18.5454545,16 C18.5454545,14.8954305 17.6296734,14 16.5,14 C15.3703266,14 14.4545455,14.8954305 14.4545455,16 C14.4545455,17.1045695 15.3703266,18 16.5,18 Z M21.9545455,18 C23.0842188,18 24,17.1045695 24,16 C24,14.8954305 23.0842188,14 21.9545455,14 C20.8248721,14 19.9090909,14.8954305 19.9090909,16 C19.9090909,17.1045695 20.8248721,18 21.9545455,18 Z" id="Icon_menu" fill="#7F8CA6" transform="translate(16.500000, 16.000000) rotate(-270.000000) translate(-16.500000, -16.000000) "></path>
                    </g>
                </g>
            </g>
        </g>
    </g>
</svg>