<?xml version="1.0" encoding="UTF-8" standalone="no"?>
<svg width="52px" height="52px" viewBox="0 0 52 52" version="1.1" xmlns="http://www.w3.org/2000/svg" xmlns:xlink="http://www.w3.org/1999/xlink" xmlns:sketch="http://www.bohemiancoding.com/sketch/ns">
    <!-- Generator: Sketch 3.3.1 (12005) - http://www.bohemiancoding.com/sketch -->
    <title>Message</title>
    <desc>Created with Sketch.</desc>
    <defs>
        <filter x="-50%" y="-50%" width="200%" height="200%" filterUnits="objectBoundingBox" id="filter-1">
            <feOffset dx="0" dy="1" in="SourceAlpha" result="shadowOffsetOuter1"></feOffset>
            <feGaussianBlur stdDeviation="1" in="shadowOffsetOuter1" result="shadowBlurOuter1"></feGaussianBlur>
            <feColorMatrix values="0 0 0 0 0   0 0 0 0 0   0 0 0 0 0  0 0 0 0.0851619112 0" in="shadowBlurOuter1" type="matrix" result="shadowMatrixOuter1"></feColorMatrix>
            <feMerge>
                <feMergeNode in="shadowMatrixOuter1"></feMergeNode>
                <feMergeNode in="SourceGraphic"></feMergeNode>
            </feMerge>
        </filter>
    </defs>
    <g id="Page-1" stroke="none" stroke-width="1" fill="none" fill-rule="evenodd" sketch:type="MSPage">
        <g id="My-Team" sketch:type="MSArtboardGroup" transform="translate(-184.000000, -523.000000)">
            <g id="Profil_member_1" sketch:type="MSLayerGroup" transform="translate(60.000000, 210.000000)">
                <g id="Message" transform="translate(126.000000, 314.000000)" sketch:type="MSShapeGroup">
                    <circle id="Oval-74" fill="#28CEE0" filter="url(#filter-1)" cx="24" cy="24" r="24"></circle>
                    <path d="M21.302771,26.2147849 L16.1663211,23.6706785 C15.9329006,23.5550643 15.9357793,23.3663138 16.1968335,23.2610208 L31.635767,17.0339155 C31.9012893,16.9268203 32.0574916,17.0604573 31.9946345,17.3283768 L29.1275427,29.5489461 C29.0648624,29.8161118 28.8157645,29.9360041 28.5715618,29.8150494 L22.6021872,26.8583916 L31.1480648,17.6608288 L21.302771,26.2147849 L21.302771,26.2147849 Z M21.1234968,30.8890005 C20.9329904,31.0944052 20.7785545,31.0390012 20.7785545,30.7580659 L20.7785545,26.3907271 L23.8906766,27.905418 L21.1234968,30.8890005 Z" id="Path-24" fill="#FFFFFF"></path>
                </g>
            </g>
        </g>
    </g>
</svg>