<?xml version="1.0" encoding="UTF-8" standalone="no"?>
<svg width="12px" height="12px" viewBox="0 0 12 12" version="1.1" xmlns="http://www.w3.org/2000/svg" xmlns:xlink="http://www.w3.org/1999/xlink" xmlns:sketch="http://www.bohemiancoding.com/sketch/ns">
    <!-- Generator: Sketch 3.2.2 (9983) - http://www.bohemiancoding.com/sketch -->
    <title>Rectangle 322</title>
    <desc>Created with Sketch.</desc>
    <defs></defs>
    <g id="Page-1" stroke="none" stroke-width="1" fill="none" fill-rule="evenodd" sketch:type="MSPage">
        <g id="Kanban" sketch:type="MSArtboardGroup" transform="translate(-314.000000, -315.000000)" fill="#7F8CA6">
            <g id="US-1" sketch:type="MSLayerGroup" transform="translate(294.000000, 201.000000)">
                <path d="M29.4987634,114 L21.0024733,114 C20.455761,114 20,114.448823 20,115.002473 L20,124.997527 C20,125.544239 20.4488226,126 21.0024733,126 L30.9975267,126 C31.544239,126 32,125.551177 32,124.997527 L32,118 L31,118 L31,125 L21,125 L21,115 L28,115 L28,114 L29.4987634,114 Z M24.636039,120.017767 L29.5857864,115.068019 L31,116.482233 L24.636039,122.846194 L23.9289322,122.139087 L21.8076118,120.017767 L23.2218254,118.603553 L24.636039,120.017767 Z" id="Rectangle-322" sketch:type="MSShapeGroup"></path>
            </g>
        </g>
    </g>
</svg>