<?xml version="1.0" encoding="utf-8"?>
<!-- Generator: Adobe Illustrator 18.0.0, SVG Export Plug-In . SVG Version: 6.00 Build 0)  -->
<!DOCTYPE svg PUBLIC "-//W3C//DTD SVG 1.1//EN" "http://www.w3.org/Graphics/SVG/1.1/DTD/svg11.dtd">
<svg version="1.1" id="Scrumbe" xmlns="http://www.w3.org/2000/svg" xmlns:xlink="http://www.w3.org/1999/xlink" x="0px" y="0px"
	 viewBox="0 565.2 1920 514.8" enable-background="new 0 565.2 1920 514.8" xml:space="preserve">
<g id="Logo_1_">
	<g id="Vert_1_">
		<g>
			<polygon fill="#78BF6C" points="423.6,601.6 308.4,638 193.5,601.6 308.4,565.2 			"/>
		</g>
		<g>
			<polygon fill="#78BF6C" points="455.8,665.7 322.3,707.7 322.3,662.7 455.8,620.5 			"/>
		</g>
		<g>
			<polygon fill="#78BF6C" points="294.6,707.7 161.3,665.7 161.3,620.5 294.6,662.7 			"/>
		</g>
	</g>
	<g id="Jaune_1_">
		<g>
			<polygon fill="#FAEA75" points="147.4,690.2 262.3,726.5 147.4,762.9 32.2,726.5 			"/>
		</g>
		<g>
			<polygon fill="#FAEA75" points="161.3,787.6 294.6,745.4 294.6,792.9 161.3,835.1 			"/>
		</g>
		<g>
			<polygon fill="#FAEA75" points="133.5,787.6 133.5,1029.1 0,986.9 0,745.4 			"/>
		</g>
	</g>
	<g id="Bleu_1_">
		<g>
			<polygon fill="#2CB6DD" points="584.9,726.5 469.7,762.9 354.8,726.5 469.7,690.2 			"/>
		</g>
		<g>
			<polygon fill="#2CB6DD" points="617.1,745.4 617.1,986.9 483.6,1029.1 483.6,787.6 			"/>
		</g>
		<g>
			<polygon fill="#2CB6DD" points="455.8,787.6 455.8,835.1 322.3,792.9 322.3,745.4 			"/>
		</g>
	</g>
	<g id="rose_1_">
		<g>
			<polygon fill="#EF668F" points="423.6,854 308.4,890.3 193.5,854 308.4,817.9 			"/>
		</g>
		<g>
			<polygon fill="#EF668F" points="455.8,873.1 455.8,1038 322.3,1080 322.3,915 			"/>
		</g>
		<g>
			<polygon fill="#EF668F" points="294.6,915 294.6,1080 161.3,1038 161.3,873.1 			"/>
		</g>
	</g>
</g>
<g enable-background="new    ">
	<path fill="#C1C1C1" d="M890.1,798.2c-3.9-14.2-16.3-20.9-27.7-20.9s-18.1,5.7-18.1,12.1c0,10.5,16,14.4,35.5,21.5
		c23.8,8.7,48.8,22.2,48.8,49.7c0,29.3-25.2,50.2-62.6,50.2c-33.5,0-57.3-18.6-67.8-48.6l36.9-9.9c4.1,12.1,15.6,24.3,32.5,24.3
		c13.8,0,20.2-6.4,20.2-14.2c0-12.8-18.8-16-41.7-24.8c-19.3-7.3-41.5-17.9-41.5-46.1c0-25,25.2-47.7,60-47.7
		c30.7,0,55,18.8,62.6,44L890.1,798.2z"/>
	<path fill="#C1C1C1" d="M1059.3,797c-7.3-9.2-21.1-14.9-33.7-14.9c-26.6,0-43.1,19-43.1,45.4c0,27.7,18.1,44.9,43.1,44.9
		c15.4,0,30-7.8,36.7-18.8l39,10.1c-13.3,28.4-41.9,47.2-75.6,47.2c-46.1,0-83.2-35.1-83.2-83.4s37.1-83.4,83.2-83.4
		c31.6,0,58.7,17,72.9,42.6L1059.3,797z"/>
	<path fill="#C1C1C1" d="M1210.7,907.7l-29.8-52.3h-19.7v52.3h-38.5V747.3h59.8c40.3,0,64.6,22,64.6,55c0,21.5-10.3,37.6-28.9,46.3
		l35.5,59.1H1210.7z M1161.2,821.3h26.6c13.8,0,19.3-10.3,19.3-19c0-8.7-5.5-19-19.3-19h-26.6V821.3z"/>
	<path fill="#C1C1C1" d="M1412.6,747.3v89.1c0,48.1-28.4,74.5-70.8,74.5c-42.6,0-70.8-26.4-70.8-74.5v-89.1h38.5v88.2
		c0,27.5,11.2,39.4,32.3,39.4c21.1,0,32.3-11.9,32.3-39.4v-88.2H1412.6z"/>
	<path fill="#C1C1C1" d="M1602.2,747.3v160.4h-37.8v-39.2c0-38,1.4-56.8,1.1-56.8h-0.2c-0.2,0-13.1,22-14.4,24.3l-18.8,32.1h-19.9
		l-18.8-32.1c-1.4-2.3-14.2-24.3-14.4-24.3h-0.2c-0.2,0,1.1,18.8,1.1,56.8v39.2H1442V747.3h36.2l30,48.6
		c11.7,19,13.5,23.1,13.8,23.1h0.2c0.2,0,2.1-4.1,13.8-23.1l30-48.6H1602.2z"/>
	<path fill="#C1C1C1" d="M1707.6,747.3c28.6,0,48.6,19,48.6,42.4c0,15.1-10.3,28-19.9,31.4v0.2c15.1,4.1,28.2,21.5,28.2,37.8
		c0,26.8-17.6,48.6-57.3,48.6h-69.2V747.3H1707.6z M1699.6,809.9c10.3,0,17.9-6.4,17.9-15.1c0-8.7-7.6-15.1-17.9-15.1h-23.1v30.3
		H1699.6z M1703.2,875.4c12.8,0,20.9-7.6,20.9-18.1c0-11.2-8.7-18.1-20.9-18.1h-26.8v36.2H1703.2z"/>
	<path fill="#C1C1C1" d="M1907.2,871.7v36h-118V747.3h116.6v36h-78.1v26.4h61.2v33.7h-61.2v28.4H1907.2z"/>
</g>
</svg>
