<?xml version="1.0" encoding="utf-8"?>
<!-- Generator: Adobe Illustrator 18.0.0, SVG Export Plug-In . SVG Version: 6.00 Build 0)  -->
<!DOCTYPE svg PUBLIC "-//W3C//DTD SVG 1.1//EN" "http://www.w3.org/Graphics/SVG/1.1/DTD/svg11.dtd">
<svg version="1.1" id="Scrumbe" xmlns="http://www.w3.org/2000/svg" xmlns:xlink="http://www.w3.org/1999/xlink" x="0px" y="0px"
	 viewBox="0 282.6 1920 514.8" enable-background="new 0 282.6 1920 514.8" xml:space="preserve">
<g id="Logo_1_">
	<g id="Vert_1_">
		<g>
			<polygon fill="#78BF6C" points="423.6,319 308.4,355.4 193.5,319 308.4,282.6 			"/>
		</g>
		<g>
			<polygon fill="#78BF6C" points="455.8,383.1 322.3,425.1 322.3,380.1 455.8,337.9 			"/>
		</g>
		<g>
			<polygon fill="#78BF6C" points="294.6,425.1 161.3,383.1 161.3,337.9 294.6,380.1 			"/>
		</g>
	</g>
	<g id="Jaune_1_">
		<g>
			<polygon fill="#FAEA75" points="147.4,407.6 262.3,443.9 147.4,480.3 32.2,443.9 			"/>
		</g>
		<g>
			<polygon fill="#FAEA75" points="161.3,505 294.6,462.8 294.6,510.3 161.3,552.5 			"/>
		</g>
		<g>
			<polygon fill="#FAEA75" points="133.5,505 133.5,746.5 0,704.3 0,462.8 			"/>
		</g>
	</g>
	<g id="Bleu_1_">
		<g>
			<polygon fill="#2CB6DD" points="584.9,443.9 469.7,480.3 354.8,443.9 469.7,407.6 			"/>
		</g>
		<g>
			<polygon fill="#2CB6DD" points="617.1,462.8 617.1,704.3 483.6,746.5 483.6,505 			"/>
		</g>
		<g>
			<polygon fill="#2CB6DD" points="455.8,505 455.8,552.5 322.3,510.3 322.3,462.8 			"/>
		</g>
	</g>
	<g id="rose_1_">
		<g>
			<polygon fill="#EF668F" points="423.6,571.4 308.4,607.7 193.5,571.4 308.4,535.3 			"/>
		</g>
		<g>
			<polygon fill="#EF668F" points="455.8,590.5 455.8,755.4 322.3,797.4 322.3,632.4 			"/>
		</g>
		<g>
			<polygon fill="#EF668F" points="294.6,632.4 294.6,797.4 161.3,755.4 161.3,590.5 			"/>
		</g>
	</g>
</g>
<text transform="matrix(1 0 0 1 793.646 604.1083)" fill="#C1C1C1" font-family="'Novecentowide-Bold'" font-size="229.1715">SCRUMBE</text>
</svg>
