<?xml version="1.0" encoding="utf-8"?>
<!-- Generator: Adobe Illustrator 18.1.1, SVG Export Plug-In . SVG Version: 6.00 Build 0)  -->
<!DOCTYPE svg PUBLIC "-//W3C//DTD SVG 1.1//EN" "http://www.w3.org/Graphics/SVG/1.1/DTD/svg11.dtd">
<svg version="1.1" id="Scrumbe" xmlns="http://www.w3.org/2000/svg" xmlns:xlink="http://www.w3.org/1999/xlink" x="0px" y="0px"
	 viewBox="0 362.2 595.3 189.7" enable-background="new 0 362.2 595.3 189.7" xml:space="preserve">
<g>
	<g>
		<g>
			<polygon fill="#FAEA75" points="50.4,455.1 90,437.1 90,454 50.4,472 			"/>
		</g>
		<g>
			<polygon fill="#FAEA75" points="0,437.1 39.6,455.1 39.6,529.1 0,511.1 			"/>
		</g>
		<g>
			<polygon fill="#FAEA75" points="45,411.8 84.6,429.8 45,447.7 5.3,429.8 			"/>
		</g>
	</g>
	<g>
		<g>
			<polygon fill="#2CB6DD" points="190.8,437.1 190.8,511.1 151.2,529.1 151.2,455.1 			"/>
		</g>
		<g>
			<polygon fill="#2CB6DD" points="140.4,472 100.8,454 100.8,437.1 140.4,455.1 			"/>
		</g>
		<g>
			<polygon fill="#2CB6DD" points="145.8,447.7 106.1,429.8 145.8,411.8 185.4,429.8 			"/>
		</g>
	</g>
	<g id="rose_4_">
		<g>
			<polygon fill="#EF668F" points="50.4,486.7 90,504.6 90,551.9 50.4,534 			"/>
		</g>
		<g>
			<polygon fill="#EF668F" points="140.4,486.7 140.4,534 100.8,551.9 100.8,504.6 			"/>
		</g>
		<g>
			<polygon fill="#EF668F" points="135,479.3 95.4,497.3 55.8,479.3 95.4,461.3 			"/>
		</g>
	</g>
	<g>
		<g>
			<polygon fill="#78BF6C" points="140.4,387.5 140.4,404.5 100.8,422.4 100.8,405.5 			"/>
		</g>
		<g>
			<polygon fill="#78BF6C" points="50.4,387.5 90,405.5 90,422.4 50.4,404.5 			"/>
		</g>
		<g>
			<polygon fill="#78BF6C" points="95.4,398.2 55.8,380.2 95.4,362.2 135,380.2 			"/>
		</g>
	</g>
</g>
<g enable-background="new    ">
	<path fill="#FFFFFF" d="M265.9,470.7c1,3.8,4.5,6,9.9,6c4.5,0,7.3-1.6,7.3-4.8c0-4.8-6-4.5-12.1-6c-6.7-1.6-15.1-4.8-15.1-15.3
		c0-10.2,7.7-15.2,18.8-15.2c10.2,0,17.4,4.1,20.2,13l-11.4,3.1c-1.2-3.6-4-5.6-9-5.6c-4.5,0-6.5,1.8-6.5,4.4
		c0,4.2,4.8,4.8,11.7,6.3c7.3,1.4,15.4,4.5,15.4,15.3c0,10.2-7.2,15.3-19.3,15.3c-8.7,0-18.5-2.6-21.3-13.4L265.9,470.7z"/>
	<path fill="#FFFFFF" d="M348.6,471.4c-3.7,9.7-12.9,15.7-23.7,15.7c-14.8,0-25.8-10.4-25.8-26c0-15.1,10.9-25.7,25.8-25.7
		c11.4,0,19.8,6.3,23.2,14.4l-11.8,3.2c-2.6-4-6.6-6.3-11.9-6.3c-8.1,0-13.2,6-13.2,14.6c0,8.8,5.5,14.6,13.1,14.6
		c6.5,0,10.6-3.4,12.6-7.5L348.6,471.4z"/>
	<path fill="#FFFFFF" d="M371.6,469.7h-2.5h-2.8v16.4h-11.9v-49.7h18.9c12.5,0,19.8,6.5,19.8,16.8c0,6.8-3.3,11.9-9.4,14.1
		l11.4,18.8h-14.1L371.6,469.7z M374,460.2c4.4,0,6.8-2.2,6.8-6.4c0-4.1-2.3-6.6-6.9-6.6h-7.7v13H374z"/>
	<path fill="#FFFFFF" d="M441.9,464c0,15-8.7,23.2-21.7,23.2c-13.1,0-21.7-8.2-21.7-23.2v-27.6h12.1v27.2c0,8.5,3.3,12.2,9.7,12.2
		c6.4,0,9.7-3.7,9.7-12.2v-27.2h11.8V464z"/>
	<path fill="#FFFFFF" d="M487.5,474c0-11.8,0.1-17.6,0.1-17.7h-0.1c-0.1,0.1-2.5,4.5-4.9,8.8l-4.8,8.7h-6.7l-4.8-8.6
		c-2.5-4.4-4.8-8.9-4.9-9h-0.2c0,0.1,0.1,5.9,0.1,17.7v12.1h-11.9v-49.7H462l12.5,22.2h0.2l12.6-22.2h12.1v49.7h-11.9V474z"/>
	<path fill="#FFFFFF" d="M537.6,459.6c4.8,1.4,9,5.4,9,12c0,7.7-5.5,14.5-17.8,14.5h-21.4v-49.7h21.5c9,0,15.1,6,15.1,12.9
		c0,5.5-3.7,9-6.4,10V459.6z M526.6,456.1c3.3,0,5.4-2,5.4-4.9c0-2.8-2.1-4.9-5.5-4.9h-7.2v9.8H526.6z M527.8,476.3
		c4.1,0,6.3-2.3,6.3-5.7c0-3.6-2.4-5.7-6.3-5.7h-8.4v11.4H527.8z"/>
	<path fill="#FFFFFF" d="M552.3,436.4h36.2v11.1h-24.3v8.5h17.9v9.9h-17.9v9.1h24.7v11.1h-36.6V436.4z"/>
</g>
</svg>
